# xmcd
#
# Track frame offsets:
#	150
#	24037
#	45207
#	63615
#	83207
#	105005
#	118347
#	140167
#	160025
#	177517
#	196622
#	218382
#	235465
#	250412
#
# Disc length: 3485 seconds
#
# Revision: 8
# Processed by: cddbd v1.5.2PL0 Copyright (c) Steve Scherf et al.
# Submitted via: EasyCDDAExtractor 12.0.1.1
#
DISCID=b10d9b0e
DTITLE=India - Latin Song Bird - Mi Alma Y Corazon
DYEAR=2002
DGENRE=Latin
TTITLE0=Seduceme (Tropical)
TTITLE1=Traicion (Tropical)
TTITLE2=El Anillo
TTITLE3=El Hombre Perfecto (Bachata Balada)
TTITLE4=Soy Mujer
TTITLE5=La Gran Tirana
TTITLE6=Que Me Importa
TTITLE7=Seduceme (Pop Balada)
TTITLE8=Enseñame A Olvidar
TTITLE9=El Hombre Perfecto (Merengue)
TTITLE10=Razones Tengo
TTITLE11=Confiando En Ti
TTITLE12=Traicion (Pop Balada)
TTITLE13=Navidad Sin Verte
EXTD=YEAR: 2002
EXTT0=
EXTT1=
EXTT2=
EXTT3=
EXTT4=
EXTT5=
EXTT6=
EXTT7=
EXTT8=
EXTT9=
EXTT10=
EXTT11=
EXTT12=
EXTT13=
PLAYORDER=
